<svg xmlns="http://www.w3.org/2000/svg" xmlns:xlink="http://www.w3.org/1999/xlink" width="1366" zoomAndPan="magnify" viewBox="0 0 1024.5 576" height="768" preserveAspectRatio="xMidYMid meet" version="1.0"><defs><g/></defs><path fill="#efa5b6" d="M 309.363281 165.984375 C 325.910156 171.917969 350.328125 195.042969 360.253906 225.226562 C 370.175781 255.410156 364.316406 283.976562 348.296875 288.523438 C 332.28125 293.074219 307.746094 268.179688 289.941406 268.964844 C 272.136719 269.746094 247.855469 284.199219 227.519531 274.550781 C 207.1875 264.902344 228.429688 210.015625 246.566406 188.855469 C 264.699219 167.695312 283.160156 156.628906 309.363281 165.984375 Z M 309.363281 165.984375 " fill-opacity="1" fill-rule="nonzero"/><path fill="#efa5b6" d="M 201.402344 130.902344 C 211.101562 124.308594 225.828125 130.617188 234.304688 144.875 C 242.777344 159.136719 241.824219 175.949219 232.125 182.539062 C 222.421875 189.128906 207.652344 182.996094 199.167969 168.734375 C 190.683594 154.472656 191.6875 137.492188 201.402344 130.902344 Z M 201.402344 130.902344 " fill-opacity="1" fill-rule="nonzero"/><path fill="#efa5b6" d="M 329.570312 156.34375 C 315.53125 150.695312 310.601562 129.417969 319.296875 109.066406 C 327.761719 88.65625 345.820312 76.839844 359.628906 82.617188 C 373.433594 88.390625 377.8125 109.457031 369.382812 129.683594 C 360.738281 149.871094 343.566406 161.984375 329.570312 156.34375 Z M 329.570312 156.34375 " fill-opacity="1" fill-rule="nonzero"/><path fill="#efa5b6" d="M 372.039062 160.523438 C 383.324219 148.71875 399.703125 146.25 407.363281 154.597656 C 415.023438 162.945312 412.515625 179.25 401.015625 190.949219 C 389.515625 202.652344 373.855469 205.453125 365.847656 197.074219 C 357.839844 188.695312 360.632812 172.332031 372.039062 160.523438 Z M 372.039062 160.523438 " fill-opacity="1" fill-rule="nonzero"/><path fill="#efa5b6" d="M 244.585938 114.765625 C 242.46875 92.878906 252.996094 73.304688 268 71.167969 C 283 69.03125 296.871094 85.050781 298.996094 106.800781 C 300.847656 128.488281 291.210938 148.0625 276.410156 150.378906 C 261.609375 152.695312 247.15625 136.773438 244.585938 114.765625 Z M 244.585938 114.765625 " fill-opacity="1" fill-rule="nonzero"/><path fill="#5ce1e6" d="M 162.773438 290.875 C 147.136719 298.902344 125.914062 324.992188 119.980469 356.179688 C 114.046875 387.371094 123.546875 414.972656 140.007812 417.414062 C 156.46875 419.859375 177.597656 392.023438 195.347656 390.46875 C 213.101562 388.914062 239.054688 400.140625 257.96875 387.941406 C 276.886719 375.742188 248.734375 324.082031 228.019531 305.421875 C 207.304688 286.757812 187.550781 278.125 162.773438 290.875 Z M 162.773438 290.875 " fill-opacity="1" fill-rule="nonzero"/><path fill="#5ce1e6" d="M 265.300781 242.089844 C 254.828125 236.800781 241.042969 244.96875 234.472656 260.203125 C 227.902344 275.4375 231.035156 291.941406 241.507812 297.230469 C 251.980469 302.523438 265.839844 294.523438 272.398438 279.246094 C 278.960938 263.96875 275.773438 247.371094 265.300781 242.089844 Z M 265.300781 242.089844 " fill-opacity="1" fill-rule="nonzero"/><path fill="#5ce1e6" d="M 141.488281 283.890625 C 154.671875 276.484375 156.820312 254.734375 145.5625 235.679688 C 134.515625 216.53125 115.09375 207.117188 102.1875 214.679688 C 89.277344 222.246094 87.617188 243.648438 98.589844 262.617188 C 109.75 281.488281 128.339844 291.285156 141.488281 283.890625 Z M 141.488281 283.890625 " fill-opacity="1" fill-rule="nonzero"/><path fill="#5ce1e6" d="M 99.921875 293.519531 C 87.226562 283.265625 70.648438 282.9375 64.132812 292.207031 C 57.613281 301.476562 62.195312 317.324219 75.101562 327.4375 C 88.007812 337.550781 103.898438 338.3125 110.765625 328.972656 C 117.632812 319.628906 112.753906 303.707031 99.921875 293.519531 Z M 99.921875 293.519531 " fill-opacity="1" fill-rule="nonzero"/><path fill="#5ce1e6" d="M 220.402344 231.671875 C 219.640625 209.695312 206.699219 191.648438 191.539062 191.46875 C 176.378906 191.289062 164.710938 208.96875 165.410156 230.804688 C 166.371094 252.542969 178.464844 270.699219 193.433594 271.089844 C 208.402344 271.480469 220.6875 253.792969 220.402344 231.671875 Z M 220.402344 231.671875 " fill-opacity="1" fill-rule="nonzero"/><g fill="#ffa7e4" fill-opacity="1"><g transform="translate(299.433333, 464.328222)"><g><path d="M 66.746094 -159.429688 C 64.457031 -159.429688 3.242188 -162.671875 3.242188 -109.65625 C 3.242188 -76.472656 27.269531 -57.402344 59.5 -57.402344 L 70.941406 -57.402344 C 77.234375 -57.402344 82.382812 -53.589844 82.382812 -47.292969 C 82.382812 -41.191406 77.234375 -36.804688 71.894531 -36.804688 C 68.84375 -36.804688 63.695312 -37.757812 61.789062 -45.386719 C 61.214844 -46.914062 60.453125 -47.867188 57.59375 -47.292969 L 6.484375 -41.191406 C 3.625 -40.621094 3.050781 -38.714844 4.578125 -35.851562 C 12.394531 -14.113281 26.316406 6.867188 73.992188 6.867188 C 98.023438 6.867188 128.34375 -6.292969 128.34375 -48.25 C 128.34375 -99.929688 82.765625 -96.113281 66.746094 -96.113281 C 61.789062 -96.113281 52.253906 -97.257812 52.253906 -106.414062 C 52.253906 -113.851562 58.546875 -117.09375 62.742188 -117.09375 C 65.792969 -117.09375 70.941406 -114.804688 72.847656 -109.65625 C 73.613281 -107.367188 75.328125 -106.414062 77.234375 -106.414062 L 123.957031 -112.898438 C 126.054688 -113.089844 127.582031 -115.1875 127.007812 -118.046875 C 124.910156 -128.34375 115.757812 -159.429688 66.746094 -159.429688 Z M 66.746094 -159.429688 "/></g></g></g><g fill="#ffa7e4" fill-opacity="1"><g transform="translate(431.0094, 464.328222)"><g><path d="M 113.851562 -153.136719 L 89.820312 -153.136719 C 82.003906 -153.136719 75.710938 -146.84375 75.710938 -139.023438 L 75.710938 -105.078125 C 75.710938 -103.933594 74.757812 -102.789062 73.804688 -102.597656 L 60.644531 -102.597656 C 59.691406 -102.789062 58.738281 -103.933594 58.546875 -104.886719 L 58.546875 -139.023438 C 58.546875 -146.84375 52.253906 -153.136719 44.433594 -153.136719 L 20.40625 -153.136719 C 12.585938 -153.136719 6.292969 -146.84375 6.292969 -139.023438 L 6.292969 -13.921875 C 6.292969 -5.910156 12.585938 0.382812 20.40625 0.382812 L 44.433594 0.382812 C 52.253906 0.382812 58.546875 -5.910156 58.546875 -13.921875 L 58.546875 -47.675781 C 58.738281 -49.011719 59.308594 -49.773438 60.644531 -50.15625 L 73.804688 -50.15625 C 74.757812 -49.773438 75.710938 -49.011719 75.710938 -47.675781 L 75.710938 -13.921875 C 75.710938 -5.910156 82.003906 0.382812 89.820312 0.382812 L 113.851562 0.382812 C 121.859375 0.382812 128.152344 -5.910156 128.152344 -13.921875 L 128.152344 -139.023438 C 128.152344 -146.84375 121.859375 -153.136719 113.851562 -153.136719 Z M 113.851562 -153.136719 "/></g></g></g><g fill="#ffa7e4" fill-opacity="1"><g transform="translate(565.445799, 464.328222)"><g><path d="M 65.410156 -154.851562 C 34.136719 -154.851562 3.242188 -129.679688 3.242188 -98.214844 L 3.242188 -54.730469 C 3.242188 -22.121094 34.136719 3.242188 65.410156 3.242188 C 97.449219 3.242188 127.582031 -22.121094 127.582031 -54.730469 L 127.582031 -98.214844 C 127.582031 -129.679688 97.449219 -154.851562 65.410156 -154.851562 Z M 78.1875 -56.640625 C 78.1875 -50.15625 72.277344 -44.433594 65.410156 -44.433594 C 58.355469 -44.433594 52.824219 -50.15625 52.824219 -56.640625 L 52.824219 -94.78125 C 52.824219 -101.644531 58.355469 -107.367188 65.410156 -107.367188 C 72.277344 -107.367188 78.1875 -101.644531 78.1875 -94.78125 Z M 78.1875 -56.640625 "/></g></g></g><g fill="#ffa7e4" fill-opacity="1"><g transform="translate(696.259111, 464.328222)"><g><path d="M 194.519531 -130.632812 L 195.472656 -137.117188 C 195.664062 -137.878906 195.664062 -138.640625 195.664062 -139.597656 C 195.664062 -146.652344 189.75 -152.5625 182.695312 -152.5625 L 157.140625 -152.5625 C 150.847656 -152.375 145.699219 -147.605469 144.746094 -141.503906 L 135.210938 -87.722656 L 134.445312 -83.910156 L 134.066406 -86.007812 L 126.628906 -140.738281 C 125.675781 -147.414062 120.335938 -152.5625 113.46875 -152.5625 L 86.007812 -152.5625 C 79.332031 -152.5625 73.804688 -147.414062 73.039062 -140.738281 L 64.839844 -82.195312 L 63.886719 -87.722656 L 54.542969 -141.503906 C 53.589844 -147.605469 48.25 -152.375 41.953125 -152.5625 L 16.589844 -152.5625 C 9.152344 -152.5625 3.242188 -146.652344 3.242188 -139.597656 C 3.242188 -138.640625 3.242188 -138.453125 3.433594 -137.117188 L 6.101562 -121.480469 L 14.304688 -71.324219 L 23.839844 -13.921875 C 25.171875 -6.101562 32.417969 0 40.8125 0 L 73.804688 0 C 82.574219 -0.191406 89.820312 -6.675781 90.964844 -15.257812 L 96.304688 -58.929688 C 96.496094 -60.835938 97.640625 -62.167969 99.546875 -62.167969 C 101.265625 -62.167969 102.597656 -61.027344 102.980469 -59.308594 L 110.226562 -13.921875 C 111.945312 -6.101562 119 0 127.390625 0 L 160.574219 0 C 169.15625 -0.191406 176.210938 -6.484375 177.546875 -14.875 Z M 194.519531 -130.632812 "/></g></g></g><path stroke-linecap="butt" transform="matrix(0.99512, 0, 0, 0.99512, 241.276723, 307.310729)" fill="none" stroke-linejoin="miter" d="M 132.125886 -7.197416 C 129.786344 -7.197416 68.306625 -10.475131 68.306625 42.81619 C 68.306625 76.174295 92.447876 95.310653 124.82463 95.310653 L 136.333922 95.310653 C 142.649901 95.310653 147.796109 99.1497 147.796109 105.46568 C 147.796109 111.593239 142.649901 115.989695 137.272094 115.989695 C 134.229904 115.989695 129.036591 115.055448 127.117067 107.381278 C 126.555734 105.838593 125.762802 104.904347 122.905106 105.46568 L 71.533309 111.593239 C 68.679538 112.201678 68.118205 114.121201 69.617711 116.974972 C 77.476375 138.823785 91.466524 159.875741 139.376112 159.875741 C 163.517363 159.875741 194.021698 146.682449 194.021698 104.527508 C 194.021698 52.594378 148.220053 56.4295 132.125886 56.4295 C 127.117067 56.4295 117.527299 55.263654 117.527299 46.042874 C 117.527299 38.604228 123.843278 35.330439 128.098419 35.330439 C 131.140609 35.330439 136.333922 37.622877 138.253446 42.81619 C 139.003198 45.108627 140.734303 46.042874 142.649901 46.042874 L 189.578137 39.542401 C 191.682155 39.353981 193.228766 37.249963 192.667432 34.396193 C 190.559489 24.009567 181.342634 -7.197416 132.125886 -7.197416 Z M 311.646508 -0.881437 L 287.505257 -0.881437 C 279.646593 -0.881437 273.326688 5.434542 273.326688 13.293206 L 273.326688 47.401065 C 273.326688 48.570836 272.392441 49.693502 271.41109 49.881922 L 258.217798 49.881922 C 257.232521 49.693502 256.298274 48.570836 256.06275 47.589484 L 256.06275 13.293206 C 256.06275 5.434542 249.74677 -0.881437 241.888106 -0.881437 L 217.746856 -0.881437 C 209.884266 -0.881437 203.568287 5.434542 203.568287 13.293206 L 203.568287 139.012205 C 203.568287 147.059288 209.884266 153.375268 217.746856 153.375268 L 241.888106 153.375268 C 249.74677 153.375268 256.06275 147.059288 256.06275 139.012205 L 256.06275 105.088841 C 256.298274 103.734575 256.859607 102.984823 258.217798 102.611909 L 271.41109 102.611909 C 272.392441 102.984823 273.326688 103.734575 273.326688 105.088841 L 273.326688 139.012205 C 273.326688 147.059288 279.646593 153.375268 287.505257 153.375268 L 311.646508 153.375268 C 319.693591 153.375268 326.056675 147.059288 326.056675 139.012205 L 326.056675 13.293206 C 326.056675 5.434542 319.693591 -0.881437 311.646508 -0.881437 Z M 398.083962 -2.612541 C 366.641455 -2.612541 335.622891 22.698481 335.622891 54.325482 L 335.622891 97.979929 C 335.622891 130.776702 366.641455 156.276143 398.083962 156.276143 C 430.272296 156.276143 460.545032 130.776702 460.545032 97.979929 L 460.545032 54.325482 C 460.545032 22.698481 430.272296 -2.612541 398.083962 -2.612541 Z M 410.90434 96.060405 C 410.90434 102.611909 404.961274 108.366555 398.083962 108.366555 C 390.971125 108.366555 385.452003 102.611909 385.452003 96.060405 L 385.452003 57.740586 C 385.452003 50.863273 390.971125 45.108627 398.083962 45.108627 C 404.961274 45.108627 410.90434 50.863273 410.90434 57.740586 Z M 659.28052 21.717129 L 660.214766 15.21273 C 660.403186 14.462978 660.403186 13.66612 660.403186 12.731873 C 660.403186 5.619036 654.507225 -0.320104 647.394388 -0.320104 L 621.710453 -0.320104 C 615.394473 -0.13561 610.20116 4.68479 609.262988 10.812349 L 599.67322 64.853423 L 598.923467 68.688545 L 598.503449 66.584527 L 591.064803 11.562102 C 590.079526 4.873209 584.748824 -0.320104 577.824406 -0.320104 L 550.217022 -0.320104 C 543.528129 -0.320104 537.961902 4.873209 537.212149 11.562102 L 528.976646 70.419649 L 527.995295 64.853423 L 518.59002 10.812349 C 517.655774 4.68479 512.274041 -0.13561 505.958062 -0.320104 L 480.45862 -0.320104 C 473.019975 -0.320104 467.076909 5.619036 467.076909 12.731873 C 467.076909 13.66612 467.076909 13.85454 467.265329 15.21273 L 469.93068 30.933984 L 478.166183 81.320503 L 487.759877 139.012205 C 489.114142 146.870869 496.368293 152.998429 504.835395 152.998429 L 537.961902 152.998429 C 546.801918 152.813935 554.056069 146.309536 555.22584 137.654014 L 560.560468 93.767968 C 560.792067 91.848444 561.914733 90.537358 563.834257 90.537358 C 565.565362 90.537358 566.923552 91.66395 567.296466 93.395054 L 574.546692 139.012205 C 576.277796 146.870869 583.390633 152.998429 591.814556 152.998429 L 625.172661 152.998429 C 633.781078 152.813935 640.893915 146.497955 642.201075 138.074033 Z M 659.28052 21.717129 " stroke="#efa5b6" stroke-width="3.114264" stroke-opacity="1" stroke-miterlimit="4"/><g fill="#5ce1e6" fill-opacity="1"><g transform="translate(406.688593, 277.749182)"><g><path d="M 112.707031 -129.105469 C 108.511719 -142.835938 95.925781 -152.183594 81.621094 -152.183594 L 21.167969 -152.183594 C 12.96875 -152.183594 6.292969 -145.316406 6.292969 -137.117188 L 6.292969 -15.445312 C 6.292969 -7.054688 12.96875 -0.382812 21.167969 -0.382812 L 41 -0.382812 C 49.203125 -0.382812 55.875 -7.054688 55.875 -15.445312 L 55.875 -50.347656 L 82.382812 -50.347656 C 90.394531 -50.347656 98.023438 -53.777344 103.171875 -59.882812 C 109.464844 -67.507812 115.949219 -80.667969 115.949219 -102.597656 C 115.949219 -113.660156 114.613281 -122.625 112.707031 -129.105469 Z M 73.230469 -102.980469 L 73.230469 -100.3125 C 73.230469 -93.828125 68.273438 -88.867188 61.980469 -88.867188 L 58.355469 -88.867188 C 56.828125 -88.867188 55.875 -89.820312 55.875 -91.15625 L 55.875 -111.753906 C 55.875 -113.089844 56.828125 -114.421875 58.355469 -114.421875 L 61.980469 -114.421875 C 68.273438 -114.421875 73.230469 -109.082031 73.230469 -102.980469 Z M 73.230469 -102.980469 "/></g></g></g><g fill="#5ce1e6" fill-opacity="1"><g transform="translate(525.869817, 277.749182)"><g><path d="M 59.5 -111.179688 L 98.214844 -111.179688 C 103.742188 -111.179688 108.320312 -115.757812 108.320312 -121.097656 L 108.320312 -142.457031 C 108.320312 -147.988281 103.742188 -152.375 98.214844 -152.375 L 20.214844 -152.375 C 12.394531 -152.375 6.292969 -146.269531 6.292969 -141.882812 L 6.292969 -17.734375 C 6.292969 -6.484375 12.394531 -0.382812 20.214844 -0.382812 L 98.214844 -0.382812 C 103.742188 -0.382812 108.320312 -4.769531 108.320312 -10.296875 L 108.320312 -31.65625 C 108.320312 -37.1875 103.742188 -41.953125 98.214844 -41.953125 L 59.5 -41.953125 C 58.738281 -41.953125 58.164062 -42.527344 58.164062 -43.289062 L 58.164062 -55.496094 C 58.164062 -56.257812 58.738281 -56.828125 59.5 -56.828125 L 87.535156 -56.828125 C 92.492188 -56.828125 96.6875 -60.835938 96.6875 -65.984375 L 96.6875 -86.769531 C 96.6875 -91.730469 92.492188 -95.925781 87.535156 -95.925781 L 59.5 -95.925781 C 58.738281 -95.925781 58.164062 -96.496094 58.164062 -97.070312 L 58.164062 -109.65625 C 58.164062 -110.226562 58.738281 -111.179688 59.5 -111.179688 Z M 59.5 -111.179688 "/></g></g></g><g fill="#5ce1e6" fill-opacity="1"><g transform="translate(640.474487, 277.749182)"><g><path d="M 127.773438 -152.5625 L 19.644531 -152.5625 C 12.394531 -152.5625 6.292969 -146.652344 6.292969 -139.214844 L 6.292969 -113.089844 C 6.292969 -105.839844 12.394531 -99.738281 19.644531 -99.738281 L 45.960938 -99.738281 C 46.722656 -99.738281 47.292969 -98.976562 47.292969 -98.402344 L 47.292969 -12.96875 C 47.292969 -5.722656 53.207031 0.382812 60.835938 0.382812 L 86.769531 0.382812 C 94.015625 0.382812 100.121094 -5.722656 100.121094 -12.96875 L 100.121094 -98.402344 C 100.121094 -98.976562 100.882812 -99.738281 101.644531 -99.738281 L 127.773438 -99.738281 C 135.019531 -99.738281 141.121094 -105.839844 141.121094 -113.089844 L 141.121094 -139.214844 C 141.121094 -146.652344 135.019531 -152.5625 127.773438 -152.5625 Z M 127.773438 -152.5625 "/></g></g></g><path stroke-linecap="butt" transform="matrix(0.99512, 0, 0, 0.99512, 241.276723, 120.731696)" fill="none" stroke-linejoin="miter" d="M 286.08426 23.260726 C 281.872298 9.458996 269.193235 0.0537221 254.830172 0.0537221 L 194.100206 0.0537221 C 185.864703 0.0537221 179.128705 6.978139 179.128705 15.213643 L 179.128705 137.466507 C 179.128705 145.886504 185.864703 152.626427 194.100206 152.626427 L 214.033421 152.626427 C 222.264999 152.626427 228.957817 145.886504 228.957817 137.466507 L 228.957817 102.424402 L 255.579925 102.424402 C 263.674113 102.424402 271.301178 98.962193 276.494491 92.830708 C 282.810471 85.160463 289.310944 71.916141 289.310944 49.882834 C 289.310944 38.79356 288.003784 29.7612 286.08426 23.260726 Z M 246.410175 49.505995 L 246.410175 52.222376 C 246.410175 58.72285 241.401356 63.684564 235.085377 63.684564 L 231.438674 63.684564 C 229.939169 63.684564 228.957817 62.746392 228.957817 61.392126 L 228.957817 40.709159 C 228.957817 39.354893 229.939169 37.996703 231.438674 37.996703 L 235.085377 37.996703 C 241.401356 37.996703 246.410175 43.378435 246.410175 49.505995 Z M 352.372602 41.270492 L 391.253754 41.270492 C 396.819981 41.270492 401.451961 36.685617 401.451961 31.30781 L 401.451961 9.83191 C 401.451961 4.308863 396.819981 -0.134697 391.253754 -0.134697 L 312.883011 -0.134697 C 305.024347 -0.134697 298.892862 5.996788 298.892862 10.440348 L 298.892862 135.174069 C 298.892862 146.494942 305.024347 152.626427 312.883011 152.626427 L 391.253754 152.626427 C 396.819981 152.626427 401.451961 148.226047 401.451961 142.65982 L 401.451961 121.18392 C 401.451961 115.617694 396.819981 110.844399 391.253754 110.844399 L 352.372602 110.844399 C 351.622849 110.844399 351.014411 110.283066 351.014411 109.486208 L 351.014411 97.231089 C 351.014411 96.481336 351.622849 95.872898 352.372602 95.872898 L 380.537394 95.872898 C 385.542288 95.872898 389.754249 91.849356 389.754249 86.703148 L 389.754249 65.788582 C 389.754249 60.830793 385.542288 56.618832 380.537394 56.618832 L 352.372602 56.618832 C 351.622849 56.618832 351.014411 56.010394 351.014411 55.449061 L 351.014411 42.817102 C 351.014411 42.255769 351.622849 41.270492 352.372602 41.270492 Z M 536.128737 -0.323117 L 427.489183 -0.323117 C 420.191852 -0.323117 414.060367 5.619949 414.060367 13.105699 L 414.060367 39.354893 C 414.060367 46.652224 420.191852 52.78371 427.489183 52.78371 L 453.922871 52.78371 C 454.719729 52.78371 455.281062 53.529537 455.281062 54.09087 L 455.281062 139.947364 C 455.281062 147.244695 461.224128 153.37618 468.894372 153.37618 L 494.955147 153.37618 C 502.209298 153.37618 508.336858 147.244695 508.336858 139.947364 L 508.336858 54.09087 C 508.336858 53.529537 509.133716 52.78371 509.879543 52.78371 L 536.128737 52.78371 C 543.426068 52.78371 549.557553 46.652224 549.557553 39.354893 L 549.557553 13.105699 C 549.557553 5.619949 543.426068 -0.323117 536.128737 -0.323117 Z M 536.128737 -0.323117 " stroke="#efa5b6" stroke-width="3.114264" stroke-opacity="1" stroke-miterlimit="4"/></svg>